<?xml version="1.0" encoding="UTF-8" standalone="no"?>
<svg
   width="1250"
   height="1250"
   viewBox="0 0 1250 1250"
   version="1.1"
   xml:space="preserve"
   style="clip-rule:evenodd;fill-rule:evenodd;stroke-linecap:round;stroke-linejoin:round"
   id="svg2242"
   sodipodi:docname="oq_symbol_rect_v1.svg"
   inkscape:export-filename="/Users/exu/code/projects/oq/branding/logo/oq_symbol_rect_v1.png"
   inkscape:export-xdpi="51.580002"
   inkscape:export-ydpi="51.580002"
   inkscape:version="1.1.1 (c3084ef, 2021-09-22)"
   xmlns:inkscape="http://www.inkscape.org/namespaces/inkscape"
   xmlns:sodipodi="http://sodipodi.sourceforge.net/DTD/sodipodi-0.dtd"
   xmlns="http://www.w3.org/2000/svg"
   xmlns:svg="http://www.w3.org/2000/svg"><sodipodi:namedview
   id="namedview2244"
   pagecolor="#505050"
   bordercolor="#eeeeee"
   borderopacity="1"
   inkscape:pageshadow="0"
   inkscape:pageopacity="0"
   inkscape:pagecheckerboard="0"
   showgrid="false"
   inkscape:zoom="0.6536"
   inkscape:cx="625"
   inkscape:cy="849.9082"
   inkscape:window-width="1728"
   inkscape:window-height="997"
   inkscape:window-x="936"
   inkscape:window-y="1478"
   inkscape:window-maximized="1"
   inkscape:current-layer="g5851"
   showguides="true"
   inkscape:guide-bbox="true"><sodipodi:guide
     position="61.974478,380.7264"
     orientation="1,0"
     id="guide5840" /><sodipodi:guide
     position="1184.0387,661.24246"
     orientation="1,0"
     id="guide5842" /></sodipodi:namedview>
    <g
   transform="scale(4.16667)"
   id="g2223">
        
        <g
   transform="rotate(90.301893,210.00174,84.997947)"
   id="g2217">
            
        </g>
        
    <g
   id="g5851"
   transform="translate(0,-27.943074)"><g
     id="g2678"
     transform="translate(-7.3264461e-4,65.000853)"><g
       transform="translate(-20)"
       id="g2213">
            <path
   id="path2211"
   style="color:#000000;clip-rule:nonzero;fill:url(#_Linear1);fill-rule:nonzero;stroke-width:4.16667;stroke-linecap:butt;stroke-linejoin:miter;-inkscape-stroke:none"
   d="M 876.63281,45.830078 C 773.66241,45.287518 681.52551,96.388629 624.99023,174.61523 568.78373,96.842785 477.38709,45.833984 375,45.833984 205.85342,45.833984 66.666016,185.01944 66.666016,354.16602 66.666016,523.31261 205.85342,662.5 375,662.5 c 102.40058,0 193.80708,-51.02276 250.01172,-128.8125 55.87574,77.33943 146.55414,128.2643 248.37109,128.80078 45.02171,0.23722 89.55832,-9.38959 130.46489,-28.20312 a 58.333373,58.333373 0 0 0 28.623,-77.37305 58.333373,58.333373 0 0 0 -77.37304,-28.62305 c -25.43013,11.69568 -53.11402,17.68262 -81.09961,17.53516 -105.14359,-0.55401 -191.20831,-87.53221 -190.6543,-192.67578 0.55401,-105.14357 87.53025,-191.20636 192.67383,-190.65235 105.14356,0.55401 191.20832,87.53026 190.65432,192.67383 -0.1475,27.98559 -6.4237,55.6047 -18.3867,80.91016 a 58.333373,58.333373 0 0 0 27.8046,77.66992 58.333373,58.333373 0 0 0 77.67,-27.80664 c 19.2435,-40.70599 29.3389,-85.13842 29.5761,-130.16016 C 1184.2272,186.63902 1045.777,46.721313 876.63281,45.830078 Z M 375,162.5 c 105.14504,0 191.66797,86.52098 191.66797,191.66602 0,105.14504 -86.52293,191.66796 -191.66797,191.66796 -105.14503,0 -191.66602,-86.52292 -191.66602,-191.66796 C 183.33398,249.02098 269.85497,162.5 375,162.5 Z"
   transform="matrix(0.23999981,0,0,0.23999981,20,0)" />
        </g><g
       transform="matrix(-9.42591e-4,-1.26702,1.26702,-9.42591e-4,201.882,451.265)"
       id="g2221">
            <path
   d="m 251.01,58.13 -14.14,-14.14 24.04,-9.9 z"
   style="fill:url(#_Linear3);fill-rule:nonzero"
   id="path2219" />
        </g></g><text
     xml:space="preserve"
     transform="matrix(0.67677165,0,0,0.67677165,-98.597118,-529.95857)"
     id="text4067"
     style="font-style:normal;font-variant:normal;font-weight:100;font-stretch:normal;font-size:64.9279px;line-height:1.25;font-family:Inter;-inkscape-font-specification:'Inter, Thin';font-variant-ligatures:normal;font-variant-caps:normal;font-variant-numeric:normal;font-variant-east-asian:normal;white-space:pre;shape-inside:url(#rect4069);fill:#000000;fill-opacity:1;stroke:none"><tspan
       x="166.35352"
       y="1182.1647"
       id="tspan8209">Open Quality</tspan></text></g></g>
    <defs
   id="defs2240"><rect
   x="166.35255"
   y="1122.0642"
   width="560.60839"
   height="88.565428"
   id="rect4069" />
        <linearGradient
   id="_Linear1"
   x1="0"
   y1="0"
   x2="1"
   y2="0"
   gradientUnits="userSpaceOnUse"
   gradientTransform="matrix(1250.001,-708.3339,708.3339,1250.001,-83.3334,708.3339)"><stop
     offset="0"
     style="stop-color:rgb(0,122,255);stop-opacity:1"
     id="stop2225" /><stop
     offset="1"
     style="stop-color:rgb(155,77,255);stop-opacity:1"
     id="stop2227" /></linearGradient>
        <linearGradient
   id="_Linear2"
   x1="0"
   y1="0"
   x2="1"
   y2="0"
   gradientUnits="userSpaceOnUse"
   gradientTransform="matrix(300,-170,170,300,0,170)"><stop
     offset="0"
     style="stop-color:rgb(0,122,255);stop-opacity:1"
     id="stop2230" /><stop
     offset="1"
     style="stop-color:rgb(155,77,255);stop-opacity:1"
     id="stop2232" /></linearGradient>
        <linearGradient
   id="_Linear3"
   x1="0"
   y1="0"
   x2="1"
   y2="0"
   gradientUnits="userSpaceOnUse"
   gradientTransform="matrix(300,-170,170,300,0,170)"><stop
     offset="0"
     style="stop-color:rgb(0,122,255);stop-opacity:1"
     id="stop2235" /><stop
     offset="1"
     style="stop-color:rgb(155,77,255);stop-opacity:1"
     id="stop2237" /></linearGradient>
    </defs>
</svg>
