<?xml version="1.0" encoding="UTF-8" standalone="no"?>
<svg
   width="100%"
   height="100%"
   viewBox="0 0 1250 709"
   version="1.1"
   xml:space="preserve"
   style="fill-rule:evenodd;clip-rule:evenodd;stroke-linecap:round;stroke-linejoin:round;"
   id="svg2242"
   sodipodi:docname="oq_symbol_v1.svg"
   inkscape:export-filename="/Users/exu/code/projects/oq/branding/logo/oq_symbol_v1.png"
   inkscape:export-xdpi="51.580002"
   inkscape:export-ydpi="51.580002"
   inkscape:version="1.1.1 (c3084ef, 2021-09-22)"
   xmlns:inkscape="http://www.inkscape.org/namespaces/inkscape"
   xmlns:sodipodi="http://sodipodi.sourceforge.net/DTD/sodipodi-0.dtd"
   xmlns="http://www.w3.org/2000/svg"
   xmlns:svg="http://www.w3.org/2000/svg"><sodipodi:namedview
   id="namedview2244"
   pagecolor="#505050"
   bordercolor="#eeeeee"
   borderopacity="1"
   inkscape:pageshadow="0"
   inkscape:pageopacity="0"
   inkscape:pagecheckerboard="0"
   showgrid="false"
   inkscape:zoom="0.9568"
   inkscape:cx="624.47742"
   inkscape:cy="354.8286"
   inkscape:window-width="3440"
   inkscape:window-height="1387"
   inkscape:window-x="0"
   inkscape:window-y="25"
   inkscape:window-maximized="1"
   inkscape:current-layer="g2223" />
    <g
   transform="matrix(4.16667,0,0,4.16667,0,0)"
   id="g2223">
        <g
   transform="matrix(1,0,0,1,-20,0)"
   id="g2213">
            <path
   id="path2211"
   style="color:#000000;clip-rule:nonzero;fill:url(#_Linear1);fill-rule:nonzero;stroke-width:4.16667;stroke-linecap:butt;stroke-linejoin:miter;-inkscape-stroke:none"
   d="M 876.63281 45.830078 C 773.66241 45.287518 681.52551 96.388629 624.99023 174.61523 C 568.78373 96.842785 477.38709 45.833984 375 45.833984 C 205.85342 45.833984 66.666016 185.01944 66.666016 354.16602 C 66.666016 523.31261 205.85342 662.5 375 662.5 C 477.40058 662.5 568.80708 611.47724 625.01172 533.6875 C 680.88746 611.02693 771.56586 661.9518 873.38281 662.48828 C 918.40452 662.7255 962.94113 653.09869 1003.8477 634.28516 A 58.333373 58.333373 0 0 0 1032.4707 556.91211 A 58.333373 58.333373 0 0 0 955.09766 528.28906 C 929.66753 539.98474 901.98364 545.97168 873.99805 545.82422 C 768.85446 545.27021 682.78974 458.29201 683.34375 353.14844 C 683.89776 248.00487 770.874 161.94208 876.01758 162.49609 C 981.16114 163.0501 1067.2259 250.02635 1066.6719 355.16992 C 1066.5244 383.15551 1060.2482 410.77462 1048.2852 436.08008 A 58.333373 58.333373 0 0 0 1076.0898 513.75 A 58.333373 58.333373 0 0 0 1153.7598 485.94336 C 1173.0033 445.23737 1183.0987 400.80494 1183.3359 355.7832 C 1184.2272 186.63902 1045.777 46.721313 876.63281 45.830078 z M 375 162.5 C 480.14504 162.5 566.66797 249.02098 566.66797 354.16602 C 566.66797 459.31106 480.14504 545.83398 375 545.83398 C 269.85497 545.83398 183.33398 459.31106 183.33398 354.16602 C 183.33398 249.02098 269.85497 162.5 375 162.5 z "
   transform="matrix(0.23999981,0,0,0.23999981,20,0)" />
        </g>
        <g
   transform="matrix(-0.00526901,0.999986,-0.999986,-0.00526901,296.105,-124.553)"
   id="g2217">
            
        </g>
        <g
   transform="matrix(-0.000942591,-1.26702,1.26702,-0.000942591,201.882,451.265)"
   id="g2221">
            <path
   d="M251.01,58.13L236.87,43.99L260.91,34.09L251.01,58.13Z"
   style="fill:url(#_Linear3);fill-rule:nonzero;"
   id="path2219" />
        </g>
    </g>
    <defs
   id="defs2240">
        <linearGradient
   id="_Linear1"
   x1="0"
   y1="0"
   x2="1"
   y2="0"
   gradientUnits="userSpaceOnUse"
   gradientTransform="matrix(1250.001,-708.3339,708.3339,1250.001,-83.3334,708.3339)"><stop
     offset="0"
     style="stop-color:rgb(0,122,255);stop-opacity:1"
     id="stop2225" /><stop
     offset="1"
     style="stop-color:rgb(155,77,255);stop-opacity:1"
     id="stop2227" /></linearGradient>
        <linearGradient
   id="_Linear2"
   x1="0"
   y1="0"
   x2="1"
   y2="0"
   gradientUnits="userSpaceOnUse"
   gradientTransform="matrix(300,-170,170,300,0,170)"><stop
     offset="0"
     style="stop-color:rgb(0,122,255);stop-opacity:1"
     id="stop2230" /><stop
     offset="1"
     style="stop-color:rgb(155,77,255);stop-opacity:1"
     id="stop2232" /></linearGradient>
        <linearGradient
   id="_Linear3"
   x1="0"
   y1="0"
   x2="1"
   y2="0"
   gradientUnits="userSpaceOnUse"
   gradientTransform="matrix(300,-170,170,300,0,170)"><stop
     offset="0"
     style="stop-color:rgb(0,122,255);stop-opacity:1"
     id="stop2235" /><stop
     offset="1"
     style="stop-color:rgb(155,77,255);stop-opacity:1"
     id="stop2237" /></linearGradient>
    </defs>
</svg>
